<svg xmlns="http://www.w3.org/2000/svg" viewBox="0 0 79.2 79.2"><defs><style>.cls-1{fill:#fff;fill-rule:evenodd;}</style></defs><g id="Layer_2" data-name="Layer 2"><g id="Layer_1-2" data-name="Layer 1"><path class="cls-1" d="M39.6,79.2A39.6,39.6,0,0,1,0,39.6H0A39.6,39.6,0,0,1,37.83,0V0H39.6A39.6,39.6,0,0,1,79.2,39.6h0A39.6,39.6,0,0,1,39.6,79.2Zm-26-13.56A36.83,36.83,0,1,0,39.64,2.78h0A36.81,36.81,0,0,0,2.78,39.6h0A36.73,36.73,0,0,0,13.56,65.64Z"/><path class="cls-1" d="M50.17,18.69,44,18.55a9,9,0,0,0-6.51,2.58,8.91,8.91,0,0,0-2.72,6.45v5.85H29a.43.43,0,0,0-.43.43v7.35a.42.42,0,0,0,.43.42h5.73V60.22a.43.43,0,0,0,.43.43h7.58a.43.43,0,0,0,.43-.43V41.63H49a.43.43,0,0,0,.43-.37l1-7.35a.4.4,0,0,0-.1-.33.41.41,0,0,0-.32-.15H43.21V29.72A4.17,4.17,0,0,1,44,26.88a2.33,2.33,0,0,1,1.81-.71h4.36a.42.42,0,0,0,.43-.42V19.12A.42.42,0,0,0,50.17,18.69Z"/></g></g></svg>