<svg xmlns="http://www.w3.org/2000/svg" viewBox="0 0 79.2 79.2"><defs><style>.cls-1{fill:#fff;fill-rule:evenodd;}</style></defs><g id="Layer_2" data-name="Layer 2"><g id="Layer_1-2" data-name="Layer 1"><path class="cls-1" d="M39.6,79.2A39.6,39.6,0,0,1,0,39.6H0A39.6,39.6,0,0,1,37.83,0V0H39.6A39.6,39.6,0,0,1,79.2,39.6h0A39.6,39.6,0,0,1,39.6,79.2Zm-26-13.56A36.83,36.83,0,1,0,39.64,2.78h0A36.81,36.81,0,0,0,2.78,39.6h0A36.73,36.73,0,0,0,13.56,65.64Z"/><path class="cls-1" d="M47.74,20.39H31.46A11.09,11.09,0,0,0,20.39,31.46V47.74A11.09,11.09,0,0,0,31.46,58.81H47.74A11.09,11.09,0,0,0,58.81,47.74V31.46A11.09,11.09,0,0,0,47.74,20.39Zm7.15,27.35h0a7.16,7.16,0,0,1-7.15,7.15H31.46a7.16,7.16,0,0,1-7.15-7.15V31.46a7.16,7.16,0,0,1,7.15-7.15H47.74a7.16,7.16,0,0,1,7.15,7.15Z"/><path class="cls-1" d="M39.6,30.68a8.92,8.92,0,1,0,8.92,8.92,8.93,8.93,0,0,0-8.92-8.92Zm0,13.74h0a4.82,4.82,0,1,1,4.82-4.82A4.82,4.82,0,0,1,39.6,44.42Z"/><path class="cls-1" d="M49.6,26.81a2.65,2.65,0,1,0,2.64,2.65A2.65,2.65,0,0,0,49.6,26.81Z"/></g></g></svg>