<svg xmlns="http://www.w3.org/2000/svg" viewBox="0 0 79.2 79.2"><defs><style>.cls-1{fill:#fff;fill-rule:evenodd;}</style></defs><g id="Layer_2" data-name="Layer 2"><g id="Layer_1-2" data-name="Layer 1"><path class="cls-1" d="M39.6,79.2A39.6,39.6,0,0,1,0,39.6H0A39.6,39.6,0,0,1,37.83,0V0H39.6A39.6,39.6,0,0,1,79.2,39.6h0A39.6,39.6,0,0,1,39.6,79.2Zm-26-13.56A36.83,36.83,0,1,0,39.64,2.78h0A36.81,36.81,0,0,0,2.78,39.6h0A36.73,36.73,0,0,0,13.56,65.64Z"/><path class="cls-1" d="M57,27.26a10.91,10.91,0,0,0,3.46-4.7S57,24.2,54.85,24.22a9.22,9.22,0,0,0-16,8.63h-.07c-13.65-.93-19.19-9.69-19.19-9.69s-3.36,6.93,2.1,12.4a5.51,5.51,0,0,1-3.12-.8s-1.15,5.91,6.31,9.1a10.34,10.34,0,0,1-3.26.35,10,10,0,0,0,8.43,6.3S27.29,54,17.57,54.71c0,0,16.09,10.52,31.73-3.69,0,0,6.83-5.78,7.68-17.4l4.65-7.43Z"/></g></g></svg>